<?xml version="1.0" encoding="utf-8"?>
<!-- Generator: Adobe Illustrator 21.0.0, SVG Export Plug-In . SVG Version: 6.00 Build 0)  -->
<svg version="1.1" xmlns="http://www.w3.org/2000/svg" xmlns:xlink="http://www.w3.org/1999/xlink" x="0px" y="0px"
	 viewBox="0 0 20 20" style="enable-background:new 0 0 20 20;" xml:space="preserve">
<style type="text/css">
	.st0{fill:#45993D;stroke:#45993D;stroke-linecap:round;stroke-linejoin:round;stroke-miterlimit:10;}
	.st1{fill:#4CBF56;stroke:#45993D;stroke-linecap:round;stroke-linejoin:round;stroke-miterlimit:10;}
</style>
<g id="Layer_1">
</g>
<g id="green_flag">
	<g>
		<g>
			<path class="st0" d="M3.9,18.5L3.9,18.5c-0.3,0-0.5-0.2-0.5-0.4V1.9c0-0.2,0.2-0.4,0.4-0.4h0.1c0.2,0,0.4,0.2,0.4,0.4v16.1
				C4.3,18.3,4.1,18.5,3.9,18.5z"/>
		</g>
		<path class="st1" d="M17.6,3.1v10.2c-0.3,0-0.6,0.1-0.9,0.1c-1.2,0-2.4-0.3-3.4-0.8s-2.2-0.8-3.4-0.8c-1.2,0-2.4,0.3-3.4,0.8
			c-0.8,0.4-1.7,0.7-2.6,0.8V3.1C4.8,3,5.7,2.8,6.5,2.4c1.1-0.5,2.3-0.8,3.4-0.8c1.2,0,2.4,0.3,3.4,0.8C14.7,3,16.2,3.3,17.6,3.1z"
			/>
	</g>
</g>
</svg>
