<?xml version="1.0" encoding="utf-8"?>
<!-- Generator: Adobe Illustrator 21.0.0, SVG Export Plug-In . SVG Version: 6.00 Build 0)  -->
<svg version="1.1" xmlns="http://www.w3.org/2000/svg" xmlns:xlink="http://www.w3.org/1999/xlink" x="0px" y="0px"
	 viewBox="0 0 20 20" style="enable-background:new 0 0 20 20;" xml:space="preserve">
<style type="text/css">
	.st0{fill:#45993D;stroke:#45993D;stroke-linecap:round;stroke-linejoin:round;stroke-miterlimit:10;}
	.st1{fill:#4CBF56;stroke:#45993D;stroke-linecap:round;stroke-linejoin:round;stroke-miterlimit:10;}
</style>
<g id="Layer_1">
</g>
<g id="green_flag">
	<g>
		<g>
			<path class="st0" d="M3.9,18.5L3.9,18.5c-0.3,0-0.5-0.2-0.5-0.4V1.9c0-0.2,0.2-0.4,0.4-0.4h0.1c0.2,0,0.4,0.2,0.4,0.4v16.1
				C4.3,18.3,4.1,18.5,3.9,18.5z"/>
		</g>
		<path class="st1" d="M17.6,2v10.2c-0.8-0.3-1.7-0.4-2.6-0.4c-1.2,0-2.4,0.3-3.4,0.8s-2.3,0.8-3.4,0.8s-2.4-0.3-3.4-0.8
			c-0.3-0.1-0.6-0.3-0.9-0.4V2c0.3,0.1,0.6,0.2,0.9,0.4C5.8,2.9,7,3.2,8.2,3.2s2.4-0.3,3.4-0.8s2.3-0.8,3.4-0.8
			C15.9,1.5,16.8,1.7,17.6,2z"/>
	</g>
</g>
</svg>
